<?xml version="1.0" encoding="iso-8859-1"?>
<!-- Generator: Adobe Illustrator 19.0.0, SVG Export Plug-In . SVG Version: 6.00 Build 0)  -->
<svg version="1.1" id="Layer_1" xmlns="http://www.w3.org/2000/svg" xmlns:xlink="http://www.w3.org/1999/xlink" x="0px" y="0px"
	 viewBox="0 0 503.874 503.874" style="enable-background:new 0 0 503.874 503.874;" xml:space="preserve">
<g transform="translate(1 1)">
	<g>
		<path style="fill:#ECF4F7;" d="M359.107,469.94L421.4,116.66c2.56-16.213-6.827-32.427-22.187-37.547l2.56-7.68l74.24,27.307
			c17.92,6.827,26.453,25.6,20.48,43.52L374.467,476.767c-6.827,17.92-21.333,22.187-46.933,22.187H319
			C336.067,498.1,355.693,488.713,359.107,469.94"/>
		<path style="fill:#ECF4F7;" d="M310.467,498.1c18.773,0,34.133-15.36,34.133-34.133v-358.4c0-16.213-11.947-29.867-27.307-33.28
			l1.707-7.68l74.24,12.8c1.707,0,4.267,0.853,5.973,1.707c15.36,5.973,24.747,21.333,22.187,37.547l-62.293,353.28
			c-3.413,18.773-22.187,28.16-39.253,28.16H310.467z"/>
	</g>
	<path style="fill:#FF7474;" d="M173.933,207.966c25.6,42.667,76.8,51.2,68.267,93.867c-3.413,18.773-15.36,34.133-34.133,34.133
		s-25.6-8.533-34.133-25.6c-8.533,17.067-15.36,25.6-34.133,25.6s-34.133-15.36-34.133-34.133
		C105.667,259.166,148.333,250.633,173.933,207.966"/>
	<g>
		<path style="fill:#ECF4F7;" d="M173.08,39.006L319,64.606l74.24,12.8c1.707,0,4.267,0.853,5.973,1.707l2.56-7.68L220.867,5.726
			c-17.92-6.827-36.693,2.56-43.52,20.48L173.08,39.006L173.08,39.006L173.08,39.006l-48.64-8.533
			c-18.773-3.413-36.693,9.387-39.253,28.16l-2.56,13.653h0.853h227.84c2.56,0,4.267,0,6.827,0.853l1.707-7.68L173.08,39.006
			L173.08,39.006z"/>
		<path style="fill:#ECF4F7;" d="M344.6,105.566v358.4c0,18.773-15.36,34.133-34.133,34.133H37.4
			c-18.773,0-34.133-15.36-34.133-34.133v-358.4c0-18.773,15.36-34.133,34.133-34.133h45.227h0.853h227.84
			c2.56,0,4.267,0,6.827,0.853C332.653,75.7,344.6,89.353,344.6,105.566 M173.933,310.366c8.533,17.067,15.36,25.6,34.133,25.6
			s30.72-15.36,34.133-34.133c8.533-42.667-42.667-51.2-68.267-93.867c-25.6,42.667-68.267,51.2-68.267,93.867
			c0,18.773,15.36,34.133,34.133,34.133S165.4,327.433,173.933,310.366"/>
	</g>
</g>
<path style="fill:#51565F;" d="M328.533,503.366H38.4c-21.333,0-38.4-17.067-38.4-38.4v-358.4c0-21.333,17.067-38.4,38.4-38.4h40.96
	l1.707-10.24c1.707-10.24,7.68-18.773,15.36-24.747c8.533-5.973,18.773-8.533,29.013-5.973l45.227,7.68l4.267-9.387
	c3.413-9.387,10.24-17.067,19.627-21.333s19.627-5.12,29.013-0.853L478.72,96.326c19.627,6.827,29.867,29.013,23.04,48.64
	L379.733,479.473C372.053,499.1,353.28,503.366,328.533,503.366z M38.4,76.7c-16.213,0-29.867,13.653-29.867,29.867v358.4
	c0,16.213,13.653,29.867,29.867,29.867h273.067c16.213,0,29.867-13.653,29.867-29.867v-358.4c0-16.213-13.653-29.867-29.867-29.867
	H115.2c-2.56,0-4.267-1.707-4.267-4.267s1.707-4.267,4.267-4.267h196.267l0,0L215.893,51.1c-2.56,0-4.267-2.56-3.413-5.12
	c0-2.56,2.56-4.267,5.12-3.413L395.094,74.14c1.707,0,2.56,0.853,4.267,0.853L221.014,10.14c-7.68-2.56-15.36-2.56-23.04,0.853
	c-6.827,3.413-12.8,9.387-15.36,17.067l-5.12,12.8c-0.853,1.707-2.56,2.56-4.267,2.56l-47.787-8.533
	c-7.68-1.707-16.213,0-22.187,5.12C96.427,44.273,92.16,51.1,91.307,59.633l-2.56,13.653c0,1.707-2.56,3.413-4.267,3.413H38.4z
	 M403.627,76.7c16.213,6.827,25.6,23.893,22.187,41.813l-62.293,353.28c-1.707,8.533-5.973,16.213-12.8,21.333
	c11.093-2.56,17.067-7.68,20.48-17.067l122.027-334.507c5.973-15.36-2.56-32.427-17.92-38.4L403.627,76.7z M324.267,70.726
	c14.507,5.12,25.6,19.627,25.6,35.84v358.4c0,9.387-3.413,17.92-8.533,24.747c6.827-4.267,12.8-10.24,14.507-19.627l62.293-353.28
	c2.56-16.213-7.68-31.573-23.893-34.987L324.267,70.726z M302.933,452.166h-17.067c-2.56,0-4.267-1.707-4.267-4.267
	s1.707-4.267,4.267-4.267h4.267V406.94l-9.387,9.387c-1.707,1.707-4.267,1.707-5.973,0c-1.707-1.707-1.707-4.267,0-5.973
	l17.067-17.067c0.853-0.853,3.413-1.707,4.267-0.853c1.707,0.853,2.56,2.56,2.56,4.267v46.933h4.267c2.56,0,4.267,1.707,4.267,4.267
	S305.493,452.166,302.933,452.166z M174.933,366.833c-2.56,0-4.267-1.707-4.267-4.267V327.58
	c-5.973,8.533-14.507,13.653-29.867,13.653c-21.333,0-38.4-17.067-38.4-38.4c0-27.307,16.213-41.813,34.133-57.173
	c11.947-11.093,24.747-22.187,34.987-38.4c1.707-2.56,5.973-2.56,7.68,0c10.24,16.213,23.893,28.16,36.693,38.4
	c19.627,16.213,37.547,30.72,32.427,58.88l0,0c-4.267,23.04-19.627,37.547-38.4,37.547c-15.36,0-23.893-5.12-29.867-13.653v34.987
	C179.2,365.126,177.493,366.833,174.933,366.833z M179.2,309.66c8.533,17.067,14.507,23.04,29.867,23.04
	c17.92,0,27.307-16.213,29.867-30.72c4.267-23.04-10.24-34.987-29.013-50.347c-11.947-9.387-24.747-19.627-34.987-34.987
	c-10.24,14.507-22.187,25.6-33.28,34.987c-17.067,15.36-31.573,27.307-31.573,51.2c0,16.213,13.653,29.867,29.867,29.867
	s21.333-5.973,29.867-23.04c0,0,0-0.853,0.853-0.853l0,0l0,0c0,0,0,0,0.853-0.853l0,0l0,0c0.853-0.853,1.707-0.853,2.56-0.853l0,0
	l0,0l0,0l0,0l0,0l0,0l0,0c0.853,0,1.707,0.853,2.56,0.853l0,0l0,0l0,0l0,0l0,0C178.347,308.806,178.347,308.806,179.2,309.66z
	 M72.533,179.1H55.467c-2.56,0-4.267-1.707-4.267-4.267c0-2.56,1.707-4.267,4.267-4.267h4.267v-36.693l-9.387,9.387
	c-1.707,1.707-4.267,1.707-5.973,0c-1.707-1.707-1.707-4.267,0-5.973L61.44,120.22c0.853-0.853,3.413-1.707,4.267-0.853
	c1.707,0.853,2.56,2.56,2.56,4.267v46.933h4.267c2.56,0,4.267,1.707,4.267,4.267C76.8,177.393,75.093,179.1,72.533,179.1z"/>
<g>
</g>
<g>
</g>
<g>
</g>
<g>
</g>
<g>
</g>
<g>
</g>
<g>
</g>
<g>
</g>
<g>
</g>
<g>
</g>
<g>
</g>
<g>
</g>
<g>
</g>
<g>
</g>
<g>
</g>
</svg>
